<svg version="1.1" id="Layer_1" xmlns="http://www.w3.org/2000/svg" xmlns:xlink="http://www.w3.org/1999/xlink" x="0px" y="0px"
	 width="100%" viewBox="0 0 225 225" enable-background="new 0 0 225 225" xml:space="preserve">
<path fill="#027EBB" opacity="1.000000" stroke="none" 
	d="
M101.000000,1.000000 
	C109.020897,1.000000 117.041801,1.000000 125.705994,1.360127 
	C175.227615,7.895923 212.938416,42.370869 223.632111,90.647346 
	C224.397675,94.103493 225.209625,97.549355 226.000000,101.000000 
	C226.000000,109.354233 226.000000,117.708466 225.644119,126.698341 
	C225.184296,127.819084 225.066193,128.301636 224.978455,128.789658 
	C216.273468,177.213852 188.457550,208.570297 141.182785,222.460617 
	C136.204941,223.923218 131.064835,224.833481 126.000000,226.000000 
	C117.645767,226.000000 109.291534,226.000000 100.301666,225.644135 
	C97.878632,224.924957 96.099380,224.514313 94.302658,224.205261 
	C49.232819,216.453064 13.649668,182.472137 3.770934,137.783401 
	C2.970340,134.161728 1.929307,130.593216 1.000000,127.000000 
	C1.000000,118.312439 1.000000,109.624870 1.355997,100.301865 
	C1.815855,99.181290 1.933928,98.698723 2.021559,98.210686 
	C10.717784,49.778893 38.525810,18.423014 85.824287,4.565196 
	C90.803612,3.106319 95.937706,2.175701 101.000000,1.000000 
M156.460373,128.751099 
	C156.340469,144.745651 156.207047,160.740128 156.143417,176.734909 
	C156.140457,177.478638 156.761475,178.224854 158.016083,179.028397 
	C167.084579,179.028397 176.153076,179.028397 185.013718,179.028397 
	C185.013718,157.067047 185.508453,135.902054 184.829620,114.774765 
	C184.417282,101.941856 178.350021,91.607407 165.563599,87.065857 
	C152.217422,82.325493 139.674347,83.892273 128.944580,93.961891 
	C127.573219,95.248894 126.377701,96.723274 124.216125,99.072060 
	C124.216125,94.439575 124.216125,91.063614 124.216125,87.626038 
	C114.883408,87.626038 106.139717,87.626038 97.334656,87.626038 
	C97.334656,118.195427 97.334656,148.434067 97.334656,178.629196 
	C106.485199,178.629196 115.348099,178.629196 124.411385,178.629196 
	C124.411385,172.225266 124.359467,166.232086 124.422501,160.240128 
	C124.543358,148.750046 124.374664,137.241165 125.004913,125.777390 
	C125.477699,117.177734 130.890579,111.756836 138.436005,110.833076 
	C150.039978,109.412437 156.098251,115.072823 156.460373,128.751099 
M78.998627,112.500000 
	C78.998627,104.234962 78.998627,95.969925 78.998627,87.588669 
	C69.289986,87.588669 60.206200,87.588669 50.837898,87.588669 
	C50.837898,118.104431 50.837898,148.329803 50.837898,178.718689 
	C60.285179,178.718689 69.499626,178.718689 78.998627,178.718689 
	C78.998627,156.765427 78.998627,135.132721 78.998627,112.500000 
M47.964474,58.534531 
	C48.419895,68.513130 55.747330,75.797211 65.074211,75.543037 
	C74.021111,75.299232 81.379768,67.788567 81.547012,58.729980 
	C81.712730,49.753525 74.424698,42.005939 65.451469,41.619534 
	C56.151180,41.219051 48.865585,47.912239 47.964474,58.534531 
z"/>
<path fill="#FDFEFE" opacity="1.000000" stroke="none" 
	d="
M226.000000,100.531342 
	C225.209625,97.549355 224.397675,94.103493 223.632111,90.647346 
	C212.938416,42.370869 175.227615,7.895923 126.174637,1.360127 
	C159.260269,1.000000 192.520523,1.000000 226.000000,1.000000 
	C226.000000,34.020573 226.000000,67.041626 226.000000,100.531342 
z"/>
<path fill="#FDFEFE" opacity="1.000000" stroke="none" 
	d="
M100.531342,1.000000 
	C95.937706,2.175701 90.803612,3.106319 85.824287,4.565196 
	C38.525810,18.423014 10.717784,49.778893 2.021559,98.210686 
	C1.933928,98.698723 1.815855,99.181290 1.355997,99.833206 
	C1.000000,67.072693 1.000000,34.145393 1.000000,1.000000 
	C34.020573,1.000000 67.041626,1.000000 100.531342,1.000000 
z"/>
<path fill="#FDFEFE" opacity="1.000000" stroke="none" 
	d="
M126.468658,226.000000 
	C131.064835,224.833481 136.204941,223.923218 141.182785,222.460617 
	C188.457550,208.570297 216.273468,177.213852 224.978455,128.789658 
	C225.066193,128.301636 225.184296,127.819084 225.644119,127.166992 
	C226.000000,159.927292 226.000000,192.854599 226.000000,226.000000 
	C192.979431,226.000000 159.958374,226.000000 126.468658,226.000000 
z"/>
<path fill="#FDFEFE" opacity="1.000000" stroke="none" 
	d="
M1.000000,127.468658 
	C1.929307,130.593216 2.970340,134.161728 3.770934,137.783401 
	C13.649668,182.472137 49.232819,216.453064 94.302658,224.205261 
	C96.099380,224.514313 97.878632,224.924957 99.833008,225.644135 
	C67.073067,226.000000 34.146137,226.000000 1.000000,226.000000 
	C1.000000,193.312759 1.000000,160.625046 1.000000,127.468658 
z"/>
<path fill="#FDFEFE" opacity="1.000000" stroke="none" 
	d="
M156.833649,128.022415 
	C156.098251,115.072823 150.039978,109.412437 138.436005,110.833076 
	C130.890579,111.756836 125.477699,117.177734 125.004913,125.777390 
	C124.374664,137.241165 124.543358,148.750046 124.422501,160.240128 
	C124.359467,166.232086 124.411385,172.225266 124.411385,178.629196 
	C115.348099,178.629196 106.485199,178.629196 97.334656,178.629196 
	C97.334656,148.434067 97.334656,118.195427 97.334656,87.626038 
	C106.139717,87.626038 114.883408,87.626038 124.216125,87.626038 
	C124.216125,91.063614 124.216125,94.439575 124.216125,99.072060 
	C126.377701,96.723274 127.573219,95.248894 128.944580,93.961891 
	C139.674347,83.892273 152.217422,82.325493 165.563599,87.065857 
	C178.350021,91.607407 184.417282,101.941856 184.829620,114.774765 
	C185.508453,135.902054 185.013718,157.067047 185.013718,179.028397 
	C176.153076,179.028397 167.084579,179.028397 157.520813,178.533569 
	C156.961594,161.366638 156.897629,144.694534 156.833649,128.022415 
z"/>
<path fill="#FEFEFF" opacity="1.000000" stroke="none" 
	d="
M78.998627,113.000000 
	C78.998627,135.132721 78.998627,156.765427 78.998627,178.718689 
	C69.499626,178.718689 60.285179,178.718689 50.837898,178.718689 
	C50.837898,148.329803 50.837898,118.104431 50.837898,87.588669 
	C60.206200,87.588669 69.289986,87.588669 78.998627,87.588669 
	C78.998627,95.969925 78.998627,104.234962 78.998627,113.000000 
z"/>
<path fill="#FCFDFE" opacity="1.000000" stroke="none" 
	d="
M47.970211,58.104309 
	C48.865585,47.912239 56.151180,41.219051 65.451469,41.619534 
	C74.424698,42.005939 81.712730,49.753525 81.547012,58.729980 
	C81.379768,67.788567 74.021111,75.299232 65.074211,75.543037 
	C55.747330,75.797211 48.419895,68.513130 47.970211,58.104309 
z"/>
<path fill="#0074B6" opacity="1.000000" stroke="none" 
	d="
M156.647018,128.386749 
	C156.897629,144.694534 156.961594,161.366638 157.058716,178.504333 
	C156.761475,178.224854 156.140457,177.478638 156.143417,176.734909 
	C156.207047,160.740128 156.340469,144.745651 156.647018,128.386749 
z"/>
</svg>