<svg version="1.1" id="Layer_1" xmlns="http://www.w3.org/2000/svg" xmlns:xlink="http://www.w3.org/1999/xlink" x="0px" y="0px"
	 width="100%" viewBox="0 0 225 225" enable-background="new 0 0 225 225" xml:space="preserve">
<path fill="#017EBB" opacity="1.000000" stroke="none" 
	d="
M94.000000,1.000000 
	C105.354225,1.000000 116.708458,1.000000 128.268524,1.227496 
	C132.661911,2.457026 136.864700,3.399662 141.034470,4.470876 
	C165.401688,10.730811 185.199738,23.881210 201.050903,43.430595 
	C212.758820,57.870060 220.767319,73.846725 224.086441,92.164551 
	C224.214035,92.868820 225.339508,93.392288 226.000000,94.000000 
	C226.000000,107.020897 226.000000,120.041786 225.607056,133.373123 
	C224.836090,134.183548 224.203323,134.643204 224.116837,135.189346 
	C220.947754,155.203476 211.919830,172.530304 198.758408,187.537964 
	C181.981567,206.668198 161.147614,219.347427 135.840866,224.096268 
	C135.133087,224.229080 134.609482,225.343369 134.000000,226.000000 
	C120.645775,226.000000 107.291542,226.000000 93.626968,225.607147 
	C92.974518,224.874512 92.669327,224.287827 92.285011,224.230347 
	C72.742744,221.308060 55.690975,212.615784 40.870323,200.111877 
	C20.741949,183.129959 7.822209,161.484238 2.913769,135.342712 
	C2.750414,134.472702 1.658880,133.776962 1.000001,133.000000 
	C1.000000,120.312439 1.000000,107.624878 1.394838,94.624344 
	C2.132542,93.971558 2.713081,93.675247 2.784353,93.285744 
	C7.548806,67.247978 20.254026,45.987045 39.968029,28.289953 
	C54.974094,14.819134 72.320068,7.095872 91.660912,2.920837 
	C92.537956,2.731514 93.224648,1.660405 94.000000,1.000000 
M156.321518,130.677475 
	C156.221619,146.068497 156.107483,161.459503 156.067322,176.850677 
	C156.065475,177.559464 156.727631,178.270004 157.560135,178.986786 
	C157.560135,178.986786 158.028717,178.884293 158.534134,178.995163 
	C158.698502,179.047455 158.862869,179.099762 159.667587,179.669968 
	C167.769196,179.497421 175.870789,179.324875 184.442612,179.004761 
	C184.442612,179.004761 184.930283,178.933670 185.646790,178.488419 
	C185.733841,159.415100 185.825607,140.341782 185.876480,121.268364 
	C185.877579,120.858406 185.408997,120.447182 185.033203,119.147881 
	C185.141556,103.718956 176.919220,91.030495 165.138397,87.187500 
	C150.972763,82.566559 137.156693,84.020317 123.876518,98.572159 
	C123.876518,95.049622 123.876518,91.527077 123.475288,87.265358 
	C116.356804,87.179222 109.237976,87.023819 102.120079,87.058556 
	C100.464569,87.066635 98.812218,87.721870 97.024185,88.997925 
	C97.018555,117.490341 96.997673,145.982788 97.050903,174.475098 
	C97.053658,175.948654 97.689713,177.421021 98.535797,178.997025 
	C98.699600,179.048706 98.863403,179.100372 99.667572,179.669937 
	C107.435844,179.497391 115.204109,179.324844 123.443810,179.004486 
	C123.443810,179.004486 123.932564,178.932144 124.647652,178.485809 
	C124.743263,162.055161 124.844437,145.624527 124.901649,129.193756 
	C124.903038,128.792938 124.415634,128.390427 124.070755,127.211021 
	C124.363762,126.453415 124.793121,125.719513 124.929497,124.934685 
	C127.308792,111.241714 134.602005,110.441238 143.896515,110.634010 
	C151.472488,110.791138 156.633011,118.094597 157.011139,128.675430 
	C156.950897,129.127502 156.890656,129.579559 156.321518,130.677475 
M50.980442,87.979103 
	C50.980442,87.979103 51.063602,87.981087 50.349083,88.453415 
	C50.236328,89.104362 50.025391,89.755249 50.024956,90.406273 
	C50.005974,118.728981 49.992851,147.051727 50.047817,175.374329 
	C50.050114,176.559464 50.708420,177.743317 51.552784,179.003632 
	C51.552784,179.003632 52.027546,179.152313 52.667946,179.670059 
	C59.418312,179.779953 66.169182,179.981293 72.918739,179.943939 
	C74.938210,179.932755 76.953995,179.254578 78.994934,177.959732 
	C78.954880,147.974472 78.914818,117.989204 78.473579,87.264099 
	C70.785851,87.178864 63.097950,87.036407 55.410522,87.058228 
	C53.929630,87.062431 52.450565,87.710609 50.980442,87.979103 
M72.905884,44.405090 
	C70.778969,43.612617 68.702560,42.347893 66.515907,42.114014 
	C59.229942,41.334740 53.730820,44.800003 50.197880,50.804131 
	C47.017620,56.208885 47.051044,62.380257 50.445278,67.599937 
	C54.011547,73.084190 59.222569,76.220146 66.407562,75.080711 
	C72.511086,74.112785 79.360619,68.870651 80.852318,63.261311 
	C82.631905,56.569382 79.522957,48.787018 72.905884,44.405090 
z"/>
<path fill="#000000" opacity="1.000000" stroke="none" 
	d="
M226.000000,93.531342 
	C225.339508,93.392288 224.214035,92.868820 224.086441,92.164551 
	C220.767319,73.846725 212.758820,57.870060 201.050903,43.430595 
	C185.199738,23.881210 165.401688,10.730811 141.034470,4.470876 
	C136.864700,3.399662 132.661911,2.457026 128.737183,1.227496 
	C161.258713,1.000000 193.517441,1.000000 226.000000,1.000000 
	C226.000000,31.687199 226.000000,62.374939 226.000000,93.531342 
z"/>
<path fill="#000000" opacity="1.000000" stroke="none" 
	d="
M93.531342,1.000000 
	C93.224648,1.660405 92.537956,2.731514 91.660912,2.920837 
	C72.320068,7.095872 54.974094,14.819134 39.968029,28.289953 
	C20.254026,45.987045 7.548806,67.247978 2.784353,93.285744 
	C2.713081,93.675247 2.132542,93.971558 1.394838,94.155685 
	C1.000000,63.073078 1.000000,32.146156 1.000000,1.000000 
	C31.687214,1.000000 62.374947,1.000000 93.531342,1.000000 
z"/>
<path fill="#000000" opacity="1.000000" stroke="none" 
	d="
M1.000001,133.468658 
	C1.658880,133.776962 2.750414,134.472702 2.913769,135.342712 
	C7.822209,161.484238 20.741949,183.129959 40.870323,200.111877 
	C55.690975,212.615784 72.742744,221.308060 92.285011,224.230347 
	C92.669327,224.287827 92.974518,224.874512 93.158310,225.607147 
	C62.406017,226.000000 31.812038,226.000000 1.000000,226.000000 
	C1.000000,195.312790 1.000000,164.625046 1.000001,133.468658 
z"/>
<path fill="#000000" opacity="1.000000" stroke="none" 
	d="
M134.468658,226.000000 
	C134.609482,225.343369 135.133087,224.229080 135.840866,224.096268 
	C161.147614,219.347427 181.981567,206.668198 198.758408,187.537964 
	C211.919830,172.530304 220.947754,155.203476 224.116837,135.189346 
	C224.203323,134.643204 224.836090,134.183548 225.607056,133.841782 
	C226.000000,164.593582 226.000000,195.187164 226.000000,226.000000 
	C195.646118,226.000000 165.291718,226.000000 134.468658,226.000000 
z"/>
<path fill="#000000" opacity="1.000000" stroke="none" 
	d="
M99.027206,179.152069 
	C98.863403,179.100372 98.699600,179.048706 98.270729,178.486725 
	C98.026695,147.998093 98.047729,118.019760 98.533340,88.023178 
	C107.290787,88.004791 115.583656,88.004669 123.876518,88.004539 
	C123.876518,91.527077 123.876518,95.049622 123.876518,98.572159 
	C137.156693,84.020317 150.972763,82.566559 165.138397,87.187500 
	C176.919220,91.030495 185.141556,103.718956 185.027206,120.055794 
	C184.990891,140.287033 184.960587,159.610352 184.930283,178.933670 
	C184.930283,178.933670 184.442612,179.004761 183.743774,179.016235 
	C175.039047,179.069168 167.033127,179.110611 159.027222,179.152069 
	C158.862869,179.099762 158.698502,179.047455 158.269470,178.481537 
	C158.003082,162.825638 158.025711,147.683258 157.961960,132.541260 
	C157.955582,131.026581 157.424500,129.514114 157.136932,128.000610 
	C156.633011,118.094597 151.472488,110.791138 143.896515,110.634010 
	C134.602005,110.441238 127.308792,111.241714 124.929497,124.934685 
	C124.793121,125.719513 124.363762,126.453415 124.035095,128.066620 
	C123.977142,145.592194 123.954849,162.262177 123.932556,178.932144 
	C123.932564,178.932144 123.443810,179.004486 122.744385,179.016113 
	C114.372375,179.069183 106.699791,179.110626 99.027206,179.152069 
z"/>
<path fill="#000000" opacity="1.000000" stroke="none" 
	d="
M78.874763,88.003944 
	C78.914818,117.989204 78.954880,147.974472 78.518845,178.469269 
	C69.371010,179.036636 60.699280,179.094467 52.027546,179.152313 
	C52.027546,179.152313 51.552784,179.003632 51.280739,178.504944 
	C51.026997,147.997879 51.045300,117.989479 51.063602,87.981087 
	C51.063602,87.981087 50.980442,87.979103 51.446178,87.992897 
	C60.899532,88.005775 69.887146,88.004860 78.874763,88.003944 
z"/>
<path fill="#000000" opacity="1.000000" stroke="none" 
	d="
M73.206635,44.640228 
	C79.522957,48.787018 82.631905,56.569382 80.852318,63.261311 
	C79.360619,68.870651 72.511086,74.112785 66.407562,75.080711 
	C59.222569,76.220146 54.011547,73.084190 50.445278,67.599937 
	C47.051044,62.380257 47.017620,56.208885 50.197880,50.804131 
	C53.730820,44.800003 59.229942,41.334740 66.515907,42.114014 
	C68.702560,42.347893 70.778969,43.612617 73.206635,44.640228 
z"/>
<path fill="#7FB3D6" opacity="1.000000" stroke="none" 
	d="
M50.706345,88.217255 
	C51.045300,117.989479 51.026997,147.997879 51.034904,178.467010 
	C50.708420,177.743317 50.050114,176.559464 50.047817,175.374329 
	C49.992851,147.051727 50.005974,118.728981 50.024956,90.406273 
	C50.025391,89.755249 50.236328,89.104362 50.706345,88.217255 
z"/>
<path fill="#EAF2F8" opacity="1.000000" stroke="none" 
	d="
M98.068756,88.041435 
	C98.047729,118.019760 98.026695,147.998093 98.018295,178.435181 
	C97.689713,177.421021 97.053658,175.948654 97.050903,174.475098 
	C96.997673,145.982788 97.018555,117.490341 97.319489,88.543922 
	C97.614792,88.089920 98.068756,88.041435 98.068756,88.041435 
z"/>
<path fill="#79B0D4" opacity="1.000000" stroke="none" 
	d="
M185.288544,178.711044 
	C184.960587,159.610352 184.990891,140.287033 185.090363,120.500130 
	C185.408997,120.447182 185.877579,120.858406 185.876480,121.268364 
	C185.825607,140.341782 185.733841,159.415100 185.288544,178.711044 
z"/>
<path fill="#7AB0D4" opacity="1.000000" stroke="none" 
	d="
M124.290100,178.708984 
	C123.954849,162.262177 123.977142,145.592194 124.077820,128.455460 
	C124.415634,128.390427 124.903038,128.792938 124.901649,129.193756 
	C124.844437,145.624527 124.743263,162.055161 124.290100,178.708984 
z"/>
<path fill="#F2F7FB" opacity="1.000000" stroke="none" 
	d="
M157.074036,128.338013 
	C157.424500,129.514114 157.955582,131.026581 157.961960,132.541260 
	C158.025711,147.683258 158.003082,162.825638 158.016754,178.426086 
	C158.028717,178.884293 157.560135,178.986786 157.283600,178.517242 
	C156.948166,162.042343 156.889282,146.036987 156.830414,130.031631 
	C156.890656,129.579559 156.950897,129.127502 157.074036,128.338013 
z"/>
<path fill="#0074B6" opacity="1.000000" stroke="none" 
	d="
M156.575958,130.354553 
	C156.889282,146.036987 156.948166,162.042343 157.043793,178.513702 
	C156.727631,178.270004 156.065475,177.559464 156.067322,176.850677 
	C156.107483,161.459503 156.221619,146.068497 156.575958,130.354553 
z"/>
<path fill="#A5C9E2" opacity="1.000000" stroke="none" 
	d="
M78.674171,87.634018 
	C69.887146,88.004860 60.899532,88.005775 51.441284,88.034195 
	C52.450565,87.710609 53.929630,87.062431 55.410522,87.058228 
	C63.097950,87.036407 70.785851,87.178864 78.674171,87.634018 
z"/>
<path fill="#A4C9E2" opacity="1.000000" stroke="none" 
	d="
M98.533340,88.023178 
	C98.068756,88.041435 97.614792,88.089920 97.386597,88.084625 
	C98.812218,87.721870 100.464569,87.066635 102.120079,87.058556 
	C109.237976,87.023819 116.356804,87.179222 123.675903,87.634949 
	C115.583656,88.004669 107.290787,88.004791 98.533340,88.023178 
z"/>
<path fill="#1487C0" opacity="1.000000" stroke="none" 
	d="
M52.347748,179.411194 
	C60.699280,179.094467 69.371010,179.036636 78.507111,178.930389 
	C76.953995,179.254578 74.938210,179.932755 72.918739,179.943939 
	C66.169182,179.981293 59.418312,179.779953 52.347748,179.411194 
z"/>
<path fill="#1487C0" opacity="1.000000" stroke="none" 
	d="
M159.347412,179.411011 
	C167.033127,179.110611 175.039047,179.069168 183.508667,179.090027 
	C175.870789,179.324875 167.769196,179.497421 159.347412,179.411011 
z"/>
<path fill="#1487C0" opacity="1.000000" stroke="none" 
	d="
M99.347389,179.411011 
	C106.699791,179.110626 114.372375,179.069183 122.508667,179.090027 
	C115.204109,179.324844 107.435844,179.497391 99.347389,179.411011 
z"/>
</svg>