<?xml version="1.0" encoding="utf-8"?>
<!-- Generator: Adobe Illustrator 25.0.1, SVG Export Plug-In . SVG Version: 6.00 Build 0)  -->
<svg version="1.1" id="Calque_1" xmlns="http://www.w3.org/2000/svg" xmlns:xlink="http://www.w3.org/1999/xlink" x="0px" y="0px"
	 viewBox="0 0 4 2" style="enable-background:new 0 0 4 2;" xml:space="preserve">
<style type="text/css">
	.st0{fill:#FFFFFF;}
</style>
<path id="Tracé_13" class="st0" d="M3.5,1.1L3,1.7c0,0,0,0,0,0C3,1.8,3,1.9,3.1,2c0,0,0,0,0,0c0,0,0.1,0,0.1,0c0,0,0,0,0,0L4,1.1
	c0,0,0,0,0,0C4,1,4,1,4,0.9c0,0,0,0,0,0L3.2,0C3.2,0,3.1,0,3,0.1c0,0,0,0,0,0c0,0.1,0,0.1,0,0.2c0,0,0,0,0,0l0.5,0.6H0.1
	c0,0,0,0,0,0C0,0.9,0,1,0,1c0,0,0,0,0,0c0,0,0.1,0.1,0.1,0.1c0,0,0,0,0,0L3.5,1.1z"/>
</svg>
